<?xml version="1.0" encoding="UTF-8" standalone="no"?>
<svg xmlns="http://www.w3.org/2000/svg" width="1000" height="1000">
  <rect x="20.52" y="416.91" width="14.00" height="15.00" stroke="#c87137" fill="#ffcc00" />
  <rect x="17.25" y="13.50" width="14.00" height="18.20" stroke="#c87137" fill="#ffcc00" />
  <rect x="29.75" y="23.50" width="14.00" height="21.40" stroke="#c87137" fill="#ffcc00" />
  <rect x="42.25" y="33.50" width="16.80" height="24.60" stroke="#c87137" fill="#ffcc00" />
  <rect x="54.75" y="43.50" width="22.40" height="27.80" stroke="#c87137" fill="#ffcc00" />
  <rect x="67.25" y="53.50" width="28.00" height="31.00" stroke="#c87137" fill="#ffcc00" />
  <rect x="79.75" y="63.50" width="33.60" height="34.20" stroke="#c87137" fill="#ffcc00" />
  <rect x="92.25" y="73.50" width="39.20" height="37.40" stroke="#c87137" fill="#ffcc00" />
  <rect x="104.75" y="83.50" width="44.80" height="40.60" stroke="#c87137" fill="#ffcc00" />
  <rect x="117.25" y="93.50" width="50.40" height="43.80" stroke="#c87137" fill="#ffcc00" />
  <rect x="129.75" y="103.50" width="56.00" height="47.00" stroke="#c87137" fill="#ffcc00" />
  <rect x="142.25" y="113.50" width="61.60" height="50.20" stroke="#c87137" fill="#ffcc00" />
  <rect x="154.75" y="123.50" width="67.20" height="53.40" stroke="#c87137" fill="#ffcc00" />
<text x="11.00" y="8.50" font-size="30" fill="red" text-anchor="middle" dominant-baseline="middle" font-weight="bold">*</text>
<text x="23.50" y="18.50" font-size="30" fill="red" text-anchor="middle" dominant-baseline="middle" font-weight="bold">*</text>
<text x="36.00" y="28.50" font-size="30" fill="red" text-anchor="middle" dominant-baseline="middle" font-weight="bold">*</text>
<text x="48.50" y="38.50" font-size="30" fill="red" text-anchor="middle" dominant-baseline="middle" font-weight="bold">*</text>
<text x="61.00" y="48.50" font-size="30" fill="red" text-anchor="middle" dominant-baseline="middle" font-weight="bold">*</text>
<text x="73.50" y="58.50" font-size="30" fill="red" text-anchor="middle" dominant-baseline="middle" font-weight="bold">*</text>
<text x="86.00" y="68.50" font-size="30" fill="red" text-anchor="middle" dominant-baseline="middle" font-weight="bold">*</text>
<text x="98.50" y="78.50" font-size="30" fill="red" text-anchor="middle" dominant-baseline="middle" font-weight="bold">*</text>
<text x="111.00" y="88.50" font-size="30" fill="red" text-anchor="middle" dominant-baseline="middle" font-weight="bold">*</text>
<text x="123.50" y="98.50" font-size="30" fill="red" text-anchor="middle" dominant-baseline="middle" font-weight="bold">*</text>
<text x="136.00" y="108.50" font-size="30" fill="red" text-anchor="middle" dominant-baseline="middle" font-weight="bold">*</text>
<text x="148.50" y="118.50" font-size="30" fill="red" text-anchor="middle" dominant-baseline="middle" font-weight="bold">*</text>
</svg>
