<?xml version="1.0" encoding="UTF-8" standalone="no"?>
<svg xmlns="http://www.w3.org/2000/svg" width="1000" height="1000">
  <rect x="289.46" y="146.02" width="67.20" height="53.40" stroke="#c87137" fill="#ffcc00" />
  <rect x="471.61" y="214.60" width="64.40" height="51.80" stroke="#800000" fill="#c8ab37" />
  <rect x="171.85" y="121.42" width="61.60" height="50.20" stroke="#c87137" fill="#ffcc00" />
  <rect x="173.26" y="269.38" width="58.80" height="48.60" stroke="#800000" fill="#c8ab37" />
  <rect x="272.08" y="184.08" width="56.00" height="47.00" stroke="#c87137" fill="#ffcc00" />
  <rect x="470.26" y="270.03" width="53.20" height="45.40" stroke="#800000" fill="#c8ab37" />
  <rect x="50.07" y="97.63" width="50.40" height="43.80" stroke="#c87137" fill="#ffcc00" />
  <rect x="190.30" y="83.45" width="47.60" height="42.20" stroke="#800000" fill="#c8ab37" />
  <rect x="436.34" y="447.81" width="44.80" height="40.60" stroke="#c87137" fill="#ffcc00" />
  <rect x="70.24" y="28.83" width="42.00" height="39.00" stroke="#800000" fill="#c8ab37" />
  <rect x="408.30" y="424.59" width="39.20" height="37.40" stroke="#c87137" fill="#ffcc00" />
  <rect x="35.15" y="30.86" width="36.40" height="35.80" stroke="#800000" fill="#c8ab37" />
  <rect x="339.86" y="418.11" width="33.60" height="34.20" stroke="#c87137" fill="#ffcc00" />
  <rect x="97.42" y="138.38" width="30.80" height="32.60" stroke="#800000" fill="#c8ab37" />
  <rect x="240.16" y="225.73" width="28.00" height="31.00" stroke="#c87137" fill="#ffcc00" />
  <rect x="221.30" y="153.94" width="25.20" height="29.40" stroke="#800000" fill="#c8ab37" />
  <rect x="85.72" y="320.71" width="22.40" height="27.80" stroke="#c87137" fill="#ffcc00" />
  <rect x="312.81" y="440.04" width="19.60" height="26.20" stroke="#800000" fill="#c8ab37" />
  <rect x="486.67" y="190.89" width="16.80" height="24.60" stroke="#c87137" fill="#ffcc00" />
  <rect x="277.09" y="101.77" width="14.00" height="23.00" stroke="#800000" fill="#c8ab37" />
  <rect x="170.46" y="72.97" width="14.00" height="21.40" stroke="#c87137" fill="#ffcc00" />
  <rect x="505.10" y="393.94" width="14.00" height="19.80" stroke="#800000" fill="#c8ab37" />
  <rect x="70.44" y="475.21" width="14.00" height="18.20" stroke="#c87137" fill="#ffcc00" />
  <rect x="464.15" y="17.52" width="14.00" height="16.60" stroke="#800000" fill="#c8ab37" />
  <rect x="20.52" y="416.91" width="14.00" height="15.00" stroke="#c87137" fill="#ffcc00" />
</svg>
