<?xml version="1.0" encoding="UTF-8" standalone="no"?>
<svg xmlns="http://www.w3.org/2000/svg" width="1000" height="1000">
  <circle cx="100.00" cy="100.00" r="50.00" stroke="black" fill="blue" />
  <circle cx="300.00" cy="100.00" r="45.00" stroke="red" fill="yellow" />
  <circle cx="500.00" cy="100.00" r="40.00" stroke="green" fill="orange" />
  <circle cx="150.00" cy="250.00" r="30.00" stroke="purple" fill="pink" />
  <circle cx="350.00" cy="250.00" r="28.00" stroke="brown" fill="gold" />
  <circle cx="550.00" cy="250.00" r="32.00" stroke="navy" fill="lightblue" />
  <rect x="100.00" y="400.00" width="80.00" height="60.00" stroke="darkred" fill="lightcoral" />
  <rect x="250.00" y="400.00" width="90.00" height="70.00" stroke="darkgreen" fill="lightgreen" />
  <rect x="450.00" y="400.00" width="75.00" height="65.00" stroke="darkblue" fill="lightblue" />
  <rect x="100.00" y="550.00" width="40.00" height="30.00" stroke="black" fill="white" />
  <rect x="200.00" y="550.00" width="45.00" height="35.00" stroke="gray" fill="silver" />
  <rect x="300.00" y="550.00" width="50.00" height="40.00" stroke="maroon" fill="pink" />
  <line x1="0.00" y1="200.00" x2="600.00" y2="200.00" stroke="gray" />
  <line x1="0.00" y1="350.00" x2="600.00" y2="350.00" stroke="silver" />
  <line x1="0.00" y1="500.00" x2="600.00" y2="500.00" stroke="lightgray" />
  <text x="50.00" y="50.00" text-anchor="start" stroke="black" fill="white">BOCHA GEOMETRICA</text>
  <text x="300.00" y="300.00" text-anchor="middle" stroke="red" fill="white">Zona de Combate</text>
  <text x="450.00" y="600.00" text-anchor="end" stroke="blue" fill="white">Fim do Campo</text>
  <circle cx="200.00" cy="150.00" r="25.00" stroke="cyan" fill="magenta" />
  <circle cx="400.00" cy="150.00" r="22.00" stroke="lime" fill="coral" />
  <rect x="150.00" y="480.00" width="35.00" height="25.00" stroke="indigo" fill="violet" />
  <rect x="350.00" y="480.00" width="38.00" height="28.00" stroke="teal" fill="aqua" />
  <circle cx="120.00" cy="120.00" r="15.00" stroke="red" fill="white" />
  <circle cx="180.00" cy="120.00" r="18.00" stroke="blue" fill="white" />
  <circle cx="240.00" cy="120.00" r="16.00" stroke="green" fill="white" />
  <rect x="500.00" y="500.00" width="60.00" height="50.00" stroke="orange" fill="brown" />
  <rect x="580.00" y="500.00" width="55.00" height="45.00" stroke="purple" fill="gold" />
  <circle cx="600.00" cy="300.00" r="35.00" stroke="crimson" fill="yellow" />
  <circle cx="650.00" cy="400.00" r="30.00" stroke="forestgreen" fill="lime" />
  <line x1="100.00" y1="100.00" x2="200.00" y2="200.00" stroke="black" />
  <line x1="300.00" y1="300.00" x2="400.00" y2="400.00" stroke="red" />
  <line x1="500.00" y1="200.00" x2="600.00" y2="300.00" stroke="blue" />
</svg>
