<?xml version="1.0" encoding="UTF-8" standalone="no"?>
<svg xmlns="http://www.w3.org/2000/svg" width="1000" height="1000">
  <line x1="300.00" y1="300.00" x2="400.00" y2="400.00" stroke="red" />
  <line x1="500.00" y1="200.00" x2="600.00" y2="300.00" stroke="blue" />
  <rect x="120.00" y="100.00" width="75.00" height="65.00" stroke="darkblue" fill="lightblue" />
  <line x1="0.00" y1="200.00" x2="600.00" y2="200.00" stroke="gray" />
  <line x1="0.00" y1="350.00" x2="600.00" y2="350.00" stroke="silver" />
  <rect x="150.00" y="200.00" width="90.00" height="70.00" stroke="darkgreen" fill="lightgreen" />
  <rect x="170.00" y="200.00" width="80.00" height="60.00" stroke="lightgreen" fill="lightcoral" />
  <rect x="150.00" y="200.00" width="90.00" height="70.00" stroke="lightgreen" fill="darkgreen" />
  <circle cx="190.00" cy="200.00" r="32.00" stroke="navy" fill="lightblue" />
  <rect x="350.00" y="150.00" width="50.00" height="40.00" stroke="maroon" fill="pink" />
  <rect x="350.00" y="180.00" width="45.00" height="35.00" stroke="gray" fill="silver" />
  <line x1="100.00" y1="100.00" x2="200.00" y2="200.00" stroke="black" />
  <circle cx="620.00" cy="250.00" r="18.00" stroke="blue" fill="white" />
  <circle cx="640.00" cy="250.00" r="30.00" stroke="forestgreen" fill="lime" />
  <circle cx="700.00" cy="300.00" r="15.00" stroke="red" fill="white" />
  <rect x="715.00" y="315.00" width="38.00" height="28.00" stroke="teal" fill="aqua" />
  <circle cx="745.00" cy="345.00" r="22.00" stroke="lime" fill="coral" />
  <circle cx="760.00" cy="360.00" r="25.00" stroke="cyan" fill="magenta" />
<text x="100.00" y="100.00" font-size="30" fill="red" text-anchor="middle" dominant-baseline="middle" font-weight="bold">*</text>
<text x="730.00" y="330.00" font-size="30" fill="red" text-anchor="middle" dominant-baseline="middle" font-weight="bold">*</text>
</svg>
