<?xml version="1.0" encoding="UTF-8"?>
<svg xmlns="http://www.w3.org/2000/svg" width="1200" height="1200">
<style> text { font-family:sans; font-size: 16.0px; font-weight:b; }</style>
<circle cx="50.00" cy="50.00" r="10.00" stroke="black" fill="red" fill-opacity="0.5" />
<text x="50.00" y="50.00" fill="black">1</text>
<circle cx="60.00" cy="60.00" r="12.00" stroke="blue" fill="cyan" fill-opacity="0.5" />
<text x="60.00" y="60.00" fill="blue">2</text>
<rect x="70.00" y="70.00" width="10.00" height="10.00" stroke="green" fill="lime" fill-opacity="0.5" />
<text x="70.00" y="70.00" fill="green">3</text>
<rect x="80.00" y="80.00" width="12.00" height="12.00" stroke="magenta" fill="pink" fill-opacity="0.5" />
<text x="80.00" y="80.00" fill="magenta">4</text>
<circle cx="90.00" cy="90.00" r="14.00" stroke="orange" fill="yellow" fill-opacity="0.5" />
<text x="90.00" y="90.00" fill="orange">5</text>
<circle cx="100.00" cy="100.00" r="16.00" stroke="brown" fill="beige" fill-opacity="0.5" />
<text x="100.00" y="100.00" fill="brown">6</text>
<rect x="110.00" y="110.00" width="18.00" height="0.00" stroke="white" fill="r" fill-opacity="0.5" />
<text x="110.00" y="110.00" fill="white">7</text>
<circle cx="130.00" cy="130.00" r="22.00" stroke="purple" fill="violet" fill-opacity="0.5" />
<text x="130.00" y="130.00" fill="purple">9</text>
<rect x="140.00" y="140.00" width="24.00" height="24.00" stroke="teal" fill="cyan" fill-opacity="0.5" />
<text x="140.00" y="140.00" fill="teal">10</text>
<rect x="150.00" y="150.00" width="26.00" height="26.00" stroke="brown" fill="tan" fill-opacity="0.5" />
<text x="150.00" y="150.00" fill="brown">11</text>
<circle cx="160.00" cy="160.00" r="28.00" stroke="darkgreen" fill="lightgreen" fill-opacity="0.5" />
<text x="160.00" y="160.00" fill="darkgreen">12</text>
<circle cx="250.00" cy="250.00" r="15.00" stroke="red" fill="yellow" fill-opacity="0.5" />
<text x="250.00" y="250.00" fill="red">13</text>
<rect x="250.00" y="250.00" width="60.00" height="60.00" stroke="navy" fill="lightblue" fill-opacity="0.5" />
<text x="250.00" y="250.00" fill="navy">14</text>
<rect x="400.00" y="400.00" width="20.00" height="20.00" stroke="orange" fill="purple" fill-opacity="0.5" />
<text x="400.00" y="400.00" fill="orange">15</text>
<circle cx="400.00" cy="400.00" r="70.00" stroke="green" fill="lime" fill-opacity="0.5" />
<text x="400.00" y="400.00" fill="green">16</text>
<circle cx="550.00" cy="550.00" r="15.00" stroke="pink" fill="magenta" fill-opacity="0.5" />
<text x="550.00" y="550.00" fill="pink">17</text>
<rect x="550.00" y="550.00" width="60.00" height="60.00" stroke="darkgray" fill="yellow" fill-opacity="0.5" />
<text x="550.00" y="550.00" fill="darkgray">18</text>
<rect x="700.00" y="700.00" width="25.00" height="25.00" stroke="coral" fill="beige" fill-opacity="0.5" />
<text x="700.00" y="700.00" fill="coral">19</text>
<circle cx="700.00" cy="700.00" r="65.00" stroke="65.0" fill="gray" fill-opacity="0.5" />
<text x="700.00" y="700.00" fill="65.0">20</text>
<rect x="450.00" y="450.00" width="30.00" height="30.00" stroke="silver" fill="gold" fill-opacity="0.5" />
<text x="450.00" y="450.00" fill="silver">21</text>
<circle cx="500.00" cy="500.00" r="25.00" stroke="blue" fill="lightblue" fill-opacity="0.5" />
<text x="500.00" y="500.00" fill="blue">22</text>
<text x="600.00" y="300.00" fill="black">f alvo</text>
</svg>
