<svg xmlns="http://www.w3.org/2000/svg">
<circle cx="100.00" cy="100.00" r="40.00" fill="red" stroke="black" />
<rect x="200.00" y="150.00" width="80.00" height="50.00" fill="yellow" stroke="blue" />
<line x1="50.00" y1="250.00" x2="300.00" y2="250.00" stroke="green" />
<rect x="50.00" y="250.00" width="300.00" height="250.00" fill="yellow" stroke="green" />
<line x1="50.00" y1="250.00" x2="300.00" y2="250.00" stroke="green" />
<circle cx="50.00" cy="250.00" r="40.00" fill="yellow" stroke="green" />
<rect x="50.00" y="250.00" width="300.00" height="250.00" fill="yellow" stroke="green" />
<circle cx="50.00" cy="250.00" r="40.00" fill="yellow" stroke="green" />
<rect x="50.00" y="250.00" width="300.00" height="250.00" fill="yellow" stroke="green" />
<line x1="50.00" y1="250.00" x2="300.00" y2="250.00" stroke="green" />
<circle cx="50.00" cy="250.00" r="40.00" fill="yellow" stroke="green" />
<rect x="50.00" y="250.00" width="300.00" height="250.00" fill="yellow" stroke="green" />
<line x1="50.00" y1="250.00" x2="300.00" y2="250.00" stroke="green" />
<rect x="50.00" y="250.00" width="300.00" height="250.00" fill="yellow" stroke="green" />
<line x1="50.00" y1="250.00" x2="300.00" y2="250.00" stroke="green" />
<rect x="50.00" y="250.00" width="300.00" height="250.00" fill="yellow" stroke="green" />
<rect x="50.00" y="250.00" width="300.00" height="250.00" fill="yellow" stroke="green" />
<circle cx="50.00" cy="250.00" r="40.00" fill="yellow" stroke="green" />
<rect x="50.00" y="250.00" width="300.00" height="250.00" fill="yellow" stroke="green" />
</svg>
